<?xml version="1.0" encoding="utf-8"?>
<!-- Generator: Adobe Illustrator 16.0.3, SVG Export Plug-In . SVG Version: 6.00 Build 0)  -->
<!DOCTYPE svg PUBLIC "-//W3C//DTD SVG 1.1//EN" "http://www.w3.org/Graphics/SVG/1.1/DTD/svg11.dtd">
<svg version="1.1" id="Layer_1" xmlns="http://www.w3.org/2000/svg" xmlns:xlink="http://www.w3.org/1999/xlink" x="0px" y="0px"
	 width="123px" height="87px" viewBox="0 0 123 87" enable-background="new 0 0 123 87" xml:space="preserve">
<path fill-rule="evenodd" clip-rule="evenodd" fill="#FFFFFF" d="M120.21,35.884h-0.334v0.708h0.344c0.192,0,0.332-0.022,0.416-0.08
	c0.087-0.055,0.126-0.139,0.126-0.26c0-0.13-0.042-0.223-0.13-0.281C120.543,35.909,120.404,35.884,120.21,35.884L120.21,35.884z
	 M120.279,35.622c0.304,0,0.525,0.046,0.673,0.146c0.149,0.098,0.225,0.246,0.225,0.439c0,0.155-0.04,0.281-0.125,0.381
	c-0.09,0.102-0.208,0.168-0.367,0.197l0.482,0.982h-0.452l-0.439-0.916h-0.399v0.916h-0.405v-2.146H120.279L120.279,35.622z
	 M121.885,36.746c0-0.227-0.042-0.442-0.122-0.645c-0.077-0.197-0.198-0.377-0.347-0.529c-0.157-0.155-0.336-0.277-0.538-0.357
	c-0.198-0.084-0.411-0.124-0.64-0.124c-0.226,0-0.434,0.036-0.633,0.119c-0.196,0.079-0.363,0.195-0.515,0.347
	c-0.166,0.158-0.288,0.344-0.374,0.545c-0.085,0.205-0.129,0.416-0.129,0.63s0.043,0.419,0.124,0.617
	c0.082,0.197,0.204,0.378,0.361,0.532c0.155,0.16,0.328,0.277,0.527,0.365c0.204,0.088,0.408,0.127,0.62,0.127
	c0.23,0,0.438-0.039,0.642-0.121c0.197-0.086,0.377-0.203,0.545-0.364c0.152-0.148,0.276-0.321,0.351-0.515
	C121.842,37.178,121.885,36.969,121.885,36.746L121.885,36.746z M120.229,34.833c0.257,0,0.508,0.05,0.734,0.143
	c0.234,0.103,0.443,0.24,0.62,0.421c0.174,0.179,0.313,0.382,0.406,0.613c0.099,0.232,0.142,0.469,0.142,0.721
	c0,0.258-0.043,0.501-0.142,0.729c-0.094,0.224-0.232,0.426-0.415,0.603c-0.181,0.182-0.392,0.322-0.627,0.418
	c-0.229,0.096-0.47,0.143-0.719,0.143c-0.25,0-0.493-0.047-0.717-0.143c-0.232-0.096-0.438-0.237-0.616-0.422
	c-0.181-0.186-0.321-0.389-0.412-0.612c-0.1-0.231-0.143-0.468-0.143-0.716c0-0.252,0.047-0.492,0.147-0.729
	c0.096-0.234,0.237-0.441,0.423-0.631c0.178-0.177,0.374-0.309,0.601-0.402C119.733,34.881,119.975,34.833,120.229,34.833
	L120.229,34.833z"/>
<path fill-rule="evenodd" clip-rule="evenodd" fill="#FFFFFF" d="M4.146,48.539H16.92c0.225-1.656-0.621-4.764-1.18-6.121
	c-0.601-1.444-1.416-2.829-2.389-4.02c-0.158-0.189-0.318-0.34-0.426-0.529c-0.281,0.086-1.184,0.856-1.397,1.046
	c-0.466,0.421-0.801,0.756-1.23,1.188l-1.74,1.914c-0.944,1.155-1.74,2.223-2.578,3.508C5.722,45.92,4.157,48.26,4.146,48.539
	L4.146,48.539z"/>
<path fill-rule="evenodd" clip-rule="evenodd" fill="#FFFFFF" d="M0.867,45.291c1.262-0.611,4.782-3.075,5.792-3.876
	c1.218-0.963,2.165-1.769,3.177-2.845c0.459-0.486,1.467-1.589,1.688-2.045c-0.209-0.318-1.613-1.293-2.089-1.592
	c-0.747-0.471-1.522-0.877-2.406-1.254c-1.826-0.771-3.929-1.223-6.163-1.221V45.291L0.867,45.291z"/>
<path fill-rule="evenodd" clip-rule="evenodd" fill="#FFFFFF" d="M47.634,47.457l0.01,1.332l2.085,0.02l0.002-12.165l-2.087-0.003
	c0.008,2.298,0,4.58,0,6.863c0,1.123,0.147,2.205-0.445,3.002c-0.441,0.59-1.302,1.059-2.325,1.146
	c-2.631,0.232-2.827-1.779-2.827-4.092c0-2.302,0.006-4.606,0.003-6.908l-2.083-0.014c-0.007,1.799-0.001,3.602-0.001,5.402
	c0,1.467-0.166,3.869,0.359,5.051c1.103,2.512,4.506,2.367,6.548,0.941C47.151,47.842,47.405,47.58,47.634,47.457L47.634,47.457z"/>
<polygon fill-rule="evenodd" clip-rule="evenodd" fill="#FFFFFF" points="33.214,31.631 21.038,31.631 21.038,33.238 25.973,33.268 
	25.977,48.789 28.331,48.809 28.333,33.268 33.21,33.264 33.214,31.631 "/>
<path fill-rule="evenodd" clip-rule="evenodd" fill="#FFFFFF" d="M53.261,45.029l-2.103-0.008c-0.126,3.438,2.64,4.373,5.559,3.969
	c3.921-0.551,4.059-4.02,3.008-5.536c-1.461-2.114-5.377-1.647-6.175-3.394c-0.3-0.662,0.009-1.391,0.363-1.758
	c0.771-0.787,2.68-0.9,3.558-0.021c0.453,0.449,0.543,1.035,0.563,1.848h1.979c0.043-1.568-0.579-2.604-1.571-3.16
	c-1.775-0.996-5.603-1.012-6.676,1.551c-0.526,1.256-0.374,2.613,0.624,3.605c1.691,1.672,5.8,0.992,5.815,3.629
	c0.002,1.525-1.269,2.035-2.797,1.895C53.662,47.488,53.302,46.469,53.261,45.029L53.261,45.029z"/>
<path fill-rule="evenodd" clip-rule="evenodd" fill="#FFFFFF" d="M62.809,33.972c-0.11,0.331-0.037,2.155-0.046,2.663l-1.803,0.004
	l-0.003,1.247h1.796c0.145,1.691-0.119,6.001-0.015,8.263c0.064,1.484,0.359,2.203,1.489,2.656c1.188,0.486,2.488,0.113,3.616-0.18
	l0.004-1.426c-0.51,0.096-0.742,0.27-1.362,0.273c-0.547,0.008-0.922-0.129-1.183-0.422c-0.563-0.615-0.419-1.889-0.419-2.813
	c0-1.344-0.038-5.3,0.04-6.355c0.42,0.014,1.954,0.053,2.268-0.027l0.002-1.196l-2.275-0.024l-0.008-3.021L62.809,33.972
	L62.809,33.972z"/>
<path fill-rule="evenodd" clip-rule="evenodd" fill="#FFFFFF" d="M33.84,38.119l-0.008-1.467l-2.134-0.015l-0.003,12.171
	l2.138-0.004c-0.006-2.641,0.002-5.262,0-7.889c0-1.396,0.284-2.23,1.322-2.633c0.758-0.291,1.684-0.211,2.438,0.126
	c0.254,0.116,0.417,0.271,0.64,0.368l0.004-1.916c-0.363-0.182-0.671-0.393-1.192-0.441c-0.497-0.045-0.997,0.049-1.4,0.215
	C34.488,37.097,34.159,37.854,33.84,38.119L33.84,38.119z"/>
<path fill-rule="evenodd" clip-rule="evenodd" fill="#FFFFFF" d="M72.092,48.801l2.237,0.008c0.204-0.76,0.474-1.563,0.718-2.316
	l2.193-6.936c0.137,0.23,2.513,8.449,2.697,9.244l2.267,0.004l3.591-12.158l-1.81-0.006c-0.306,0.485-2.407,9.125-2.754,9.846
	c-0.021-0.021-0.011,0.012-0.062-0.102c-0.037-0.072-0.037-0.08-0.063-0.174l-1.961-7.094c-0.214-0.771-0.524-1.699-0.683-2.469
	l-1.957-0.01c-0.154,0.736-0.523,1.697-0.754,2.455c-0.26,0.847-0.516,1.65-0.78,2.492c-0.256,0.807-0.51,1.652-0.759,2.447
	l-0.807,2.455l-2.604-9.834l-2.225-0.014L72.092,48.801L72.092,48.801z"/>
<path fill-rule="evenodd" clip-rule="evenodd" fill="#FFFFFF" d="M93.637,42.625c0,1.73,0.223,3.322-0.835,4.289
	c-0.898,0.814-2.841,1.072-3.769,0.156c-0.813-0.805-0.876-2.641,0.384-3.484C90.251,43.03,92.406,42.684,93.637,42.625
	L93.637,42.625z M86.664,40.49l1.969,0.021c0.083-0.977,0.118-1.576,0.698-2.128c0.517-0.482,1.308-0.689,2.26-0.636
	c2.087,0.121,2.119,1.693,2.036,3.697c-1.528,0.137-3.733,0.357-5.054,0.843c-1.679,0.62-2.464,1.8-2.337,3.638
	c0.243,3.48,4.396,3.746,6.538,2.316c0.476-0.316,0.661-0.586,0.849-0.682c0.109,1.445,0.143,1.266,2.633,1.24
	c0.008-0.678-0.392-0.037-0.528-1.115c-0.158-1.232,0.092-6.369-0.059-8.092c-0.112-1.185-0.326-1.738-0.994-2.334
	c-1.12-1.004-3.646-1.105-5.332-0.614C87.626,37.143,86.563,38.334,86.664,40.49L86.664,40.49z"/>
<path fill-rule="evenodd" clip-rule="evenodd" fill="#FFFFFF" d="M109.936,41.383c0.008-1.938,1.129-3.533,2.974-3.637
	c2.175-0.117,2.892,1.603,2.945,3.646L109.936,41.383L109.936,41.383z M117.89,45.068l-2.07-0.006
	c-0.114,1.066-0.486,1.768-1.188,2.182c-0.771,0.453-1.86,0.582-2.809,0.221c-1.579-0.602-2.085-2.699-1.976-4.773l8.096-0.02
	c0.154-3.549-1.063-6.23-4.579-6.302c-3.559-0.071-5.278,1.905-5.663,5.174c-0.428,3.603,0.532,6.485,3.431,7.288
	C114.362,49.725,117.899,48.191,117.89,45.068L117.89,45.068z"/>
<path fill-rule="evenodd" clip-rule="evenodd" fill="#FFFFFF" d="M100.738,48.801l2.237,0.004l4.413-12.147l-1.91-0.019
	c-1.001,2.762-1.998,5.805-2.967,8.623c-0.071,0.211-0.142,0.41-0.214,0.621c-0.061,0.184-0.129,0.453-0.245,0.598l-3.02-9.832
	l-2.291-0.01L100.738,48.801L100.738,48.801z"/>
<path fill-rule="evenodd" clip-rule="evenodd" fill="#FFFFFF" d="M17.761,31.631H6.263c0.265,0.181,0.696,0.264,1.02,0.393
	c4.266,1.705,7.688,4.828,9.622,9.004l0.847,2.042L17.761,31.631L17.761,31.631z"/>
<path fill-rule="evenodd" clip-rule="evenodd" fill="#FFFFFF" d="M47.667,55.322h0.553c0.007,0.305,0.106,0.551,0.307,0.73
	c0.198,0.18,0.462,0.271,0.795,0.271c0.326,0,0.582-0.07,0.77-0.207c0.192-0.137,0.282-0.322,0.282-0.561
	c0-0.326-0.354-0.568-1.059-0.736c-0.043-0.012-0.074-0.02-0.098-0.023c-0.57-0.137-0.954-0.289-1.137-0.457
	c-0.183-0.166-0.279-0.402-0.279-0.711c0-0.377,0.139-0.678,0.415-0.91c0.276-0.221,0.642-0.342,1.101-0.342
	c0.464,0,0.832,0.123,1.1,0.359c0.269,0.242,0.401,0.572,0.406,0.988h-0.545c-0.021-0.277-0.118-0.494-0.289-0.646
	c-0.177-0.152-0.413-0.225-0.711-0.225c-0.282,0-0.506,0.064-0.676,0.186c-0.167,0.123-0.254,0.287-0.254,0.49
	c0,0.324,0.351,0.568,1.05,0.729c0.099,0.021,0.178,0.045,0.233,0.063c0.013,0,0.034,0.004,0.06,0.01
	c0.457,0.109,0.757,0.223,0.908,0.354c0.11,0.098,0.199,0.209,0.257,0.346s0.092,0.293,0.092,0.461c0,0.406-0.147,0.73-0.442,0.973
	c-0.289,0.244-0.686,0.363-1.179,0.363c-0.517,0-0.915-0.131-1.2-0.391C47.845,56.174,47.691,55.809,47.667,55.322L47.667,55.322z
	 M51.991,54.898h1.688c-0.004-0.287-0.075-0.508-0.219-0.664c-0.143-0.16-0.346-0.232-0.607-0.232c-0.258,0-0.459,0.072-0.605,0.229
	C52.105,54.387,52.016,54.604,51.991,54.898L51.991,54.898z M53.667,55.721h0.507c-0.054,0.34-0.201,0.604-0.437,0.797
	c-0.243,0.197-0.543,0.297-0.906,0.297c-0.429,0-0.765-0.143-1.008-0.432c-0.25-0.285-0.373-0.68-0.373-1.174
	c0-0.525,0.123-0.936,0.371-1.225c0.242-0.295,0.578-0.443,1.01-0.443c0.439,0,0.781,0.135,1.026,0.404
	c0.236,0.273,0.36,0.658,0.36,1.152c0,0.061,0,0.111,0,0.141c0,0.031-0.005,0.057-0.008,0.092h-2.217
	c0.006,0.322,0.086,0.57,0.246,0.752c0.15,0.172,0.363,0.264,0.639,0.264c0.211,0,0.387-0.057,0.522-0.168
	C53.538,56.078,53.624,55.92,53.667,55.721L53.667,55.721z M56.851,54.664c-0.017-0.209-0.094-0.377-0.232-0.486
	c-0.137-0.115-0.318-0.172-0.56-0.172c-0.279,0-0.493,0.104-0.644,0.305c-0.154,0.197-0.232,0.486-0.232,0.855
	c0,0.377,0.075,0.666,0.224,0.865c0.146,0.201,0.355,0.307,0.621,0.307c0.237,0,0.43-0.061,0.572-0.186
	c0.147-0.127,0.239-0.307,0.269-0.541h0.497c-0.027,0.373-0.161,0.67-0.4,0.883c-0.239,0.209-0.563,0.313-0.965,0.313
	c-0.42,0-0.753-0.145-0.985-0.434c-0.244-0.289-0.365-0.686-0.365-1.184c0-0.512,0.124-0.924,0.379-1.211
	c0.251-0.289,0.595-0.438,1.03-0.438c0.388,0,0.695,0.104,0.93,0.309c0.229,0.201,0.354,0.471,0.369,0.814H56.851L56.851,54.664z
	 M58.404,53.645v1.883c0,0.297,0.044,0.51,0.143,0.629c0.09,0.117,0.255,0.178,0.477,0.178c0.298,0,0.527-0.092,0.677-0.262
	c0.15-0.18,0.228-0.438,0.228-0.777v-1.65h0.521v3.066h-0.495v-0.457c-0.109,0.182-0.249,0.313-0.416,0.396
	c-0.171,0.096-0.373,0.137-0.599,0.137c-0.216,0-0.4-0.031-0.561-0.105c-0.158-0.074-0.281-0.178-0.365-0.313
	c-0.048-0.076-0.079-0.16-0.102-0.26s-0.034-0.262-0.034-0.479v-0.143v-1.844H58.404L58.404,53.645z M61.234,56.711v-3.066h0.499
	v0.547c0.079-0.207,0.194-0.357,0.336-0.461c0.14-0.102,0.309-0.154,0.515-0.154c0.036,0,0.066,0,0.084,0
	c0.015,0.004,0.028,0.008,0.051,0.012v0.543c-0.017-0.004-0.028-0.008-0.044-0.008c-0.018,0-0.048,0-0.076,0
	c-0.277,0-0.488,0.076-0.635,0.225c-0.145,0.146-0.216,0.373-0.216,0.658v1.705H61.234L61.234,56.711z M63.181,53.078v-0.584h0.52
	v0.584H63.181L63.181,53.078z M63.181,56.711v-3.066h0.52v3.066H63.181L63.181,56.711z M65.093,55.941
	c0,0.141,0.022,0.227,0.058,0.275c0.039,0.045,0.11,0.068,0.219,0.068c0.026,0,0.064,0,0.104,0c0.048-0.004,0.103-0.008,0.173-0.016
	v0.438c-0.089,0.018-0.167,0.029-0.234,0.035c-0.068,0.008-0.129,0.016-0.179,0.016c-0.243,0-0.416-0.051-0.513-0.143
	c-0.095-0.098-0.146-0.262-0.146-0.502v-2.061h-0.46v-0.408h0.46v-0.861h0.518v0.861h0.554v0.408h-0.554V55.941L65.093,55.941z
	 M68.082,53.645h0.572l-1.29,3.545c-0.125,0.332-0.247,0.553-0.37,0.658C66.873,57.947,66.689,58,66.459,58
	c-0.055,0-0.106-0.006-0.156-0.014s-0.1-0.02-0.156-0.035v-0.49c0.057,0.012,0.106,0.023,0.151,0.037
	c0.053,0.002,0.104,0.006,0.153,0.006c0.098,0,0.176-0.02,0.238-0.059c0.061-0.045,0.11-0.105,0.139-0.193l0.137-0.359l-1.162-3.248
	h0.573l0.854,2.48L68.082,53.645L68.082,53.645z M71.223,55.152c0,0.387,0.077,0.68,0.232,0.885c0.16,0.209,0.382,0.313,0.671,0.313
	c0.287,0,0.51-0.104,0.671-0.305c0.166-0.199,0.246-0.475,0.246-0.824c0-0.389-0.078-0.686-0.239-0.896
	c-0.156-0.209-0.379-0.318-0.67-0.318c-0.306,0-0.531,0.096-0.687,0.289C71.298,54.484,71.223,54.773,71.223,55.152L71.223,55.152z
	 M70.735,56.711v-4.217h0.501v1.572c0.123-0.172,0.263-0.301,0.43-0.395c0.167-0.084,0.357-0.131,0.567-0.131
	c0.405,0,0.734,0.152,0.976,0.449c0.249,0.293,0.374,0.693,0.374,1.199c0,0.49-0.123,0.889-0.365,1.18
	c-0.241,0.289-0.57,0.438-0.979,0.438c-0.215,0-0.405-0.039-0.563-0.117c-0.164-0.074-0.309-0.195-0.438-0.365v0.387H70.735
	L70.735,56.711z M74.606,54.898h1.686c-0.002-0.287-0.072-0.508-0.217-0.664c-0.145-0.16-0.349-0.232-0.609-0.232
	c-0.258,0-0.459,0.072-0.601,0.229C74.716,54.387,74.628,54.604,74.606,54.898L74.606,54.898z M76.281,55.721h0.506
	c-0.054,0.34-0.203,0.604-0.436,0.797c-0.242,0.197-0.542,0.297-0.909,0.297c-0.422,0-0.763-0.143-1.009-0.432
	c-0.242-0.285-0.365-0.68-0.365-1.174c0-0.525,0.121-0.936,0.36-1.225c0.245-0.295,0.583-0.443,1.014-0.443
	c0.443,0,0.786,0.135,1.028,0.404c0.238,0.273,0.362,0.658,0.362,1.152c0,0.061,0,0.111-0.002,0.141
	c0,0.031-0.002,0.057-0.006,0.092h-2.217c0.006,0.322,0.084,0.57,0.242,0.752c0.154,0.172,0.369,0.264,0.642,0.264
	c0.21,0,0.389-0.057,0.523-0.168C76.151,56.078,76.236,55.92,76.281,55.721L76.281,55.721z M78.726,54.006
	c-0.295,0-0.521,0.104-0.673,0.305c-0.158,0.205-0.237,0.494-0.237,0.867c0,0.369,0.081,0.658,0.242,0.859
	c0.158,0.209,0.387,0.313,0.672,0.313c0.313,0,0.548-0.096,0.692-0.285c0.147-0.186,0.227-0.475,0.227-0.861
	c0-0.398-0.08-0.695-0.232-0.893C79.259,54.109,79.026,54.006,78.726,54.006L78.726,54.006z M79.631,56.338
	c-0.121,0.16-0.264,0.281-0.421,0.357c-0.162,0.076-0.347,0.119-0.553,0.119c-0.413,0-0.747-0.152-1.002-0.453
	c-0.254-0.301-0.38-0.697-0.38-1.195c0-0.488,0.126-0.883,0.38-1.176c0.256-0.297,0.592-0.449,1.009-0.449
	c0.201,0,0.382,0.039,0.535,0.115s0.293,0.201,0.427,0.373v-0.385h0.506v3.002c0,0.475-0.111,0.814-0.339,1.027
	c-0.229,0.213-0.59,0.316-1.094,0.316c-0.41,0-0.724-0.074-0.959-0.236c-0.225-0.156-0.344-0.377-0.344-0.658v-0.023h0.509v0.012
	c0,0.156,0.068,0.277,0.204,0.357c0.135,0.076,0.338,0.121,0.608,0.121c0.325,0,0.56-0.064,0.699-0.189
	c0.144-0.125,0.214-0.328,0.214-0.615V56.338L79.631,56.338z M80.917,53.078v-0.584h0.52v0.584H80.917L80.917,53.078z
	 M80.917,56.711v-3.066h0.52v3.066H80.917L80.917,56.711z M84.268,56.711V54.82c0-0.297-0.045-0.504-0.14-0.625
	c-0.095-0.117-0.249-0.174-0.476-0.174c-0.29,0-0.511,0.084-0.67,0.244c-0.163,0.166-0.241,0.398-0.241,0.695v1.75h-0.519v-3.066
	h0.497v0.443c0.116-0.174,0.259-0.307,0.422-0.391c0.157-0.092,0.347-0.129,0.558-0.129c0.237,0,0.431,0.033,0.59,0.1
	c0.158,0.068,0.278,0.182,0.362,0.316c0.05,0.078,0.085,0.158,0.107,0.262c0.02,0.096,0.029,0.262,0.029,0.479v0.145v1.842H84.268
	L84.268,56.711z M85.353,55.711h0.495c0.016,0.213,0.089,0.373,0.223,0.479c0.135,0.104,0.319,0.16,0.562,0.16
	c0.225,0,0.396-0.045,0.524-0.129c0.128-0.088,0.192-0.205,0.192-0.357c0-0.115-0.029-0.199-0.093-0.26
	c-0.062-0.061-0.188-0.113-0.376-0.158l-0.573-0.15c-0.324-0.082-0.551-0.182-0.68-0.311c-0.127-0.123-0.19-0.313-0.19-0.553
	c0-0.27,0.1-0.49,0.305-0.646c0.206-0.156,0.49-0.24,0.848-0.24c0.362,0,0.654,0.088,0.874,0.256
	c0.215,0.172,0.321,0.398,0.321,0.684V54.5h-0.5c-0.009-0.164-0.079-0.289-0.199-0.377c-0.122-0.09-0.286-0.133-0.493-0.133
	c-0.208,0-0.371,0.035-0.477,0.107c-0.113,0.074-0.164,0.176-0.164,0.313c0,0.105,0.037,0.182,0.105,0.242
	c0.063,0.053,0.191,0.104,0.38,0.148l0.499,0.115c0.354,0.084,0.597,0.189,0.732,0.318c0.134,0.133,0.2,0.322,0.2,0.564
	c0,0.318-0.114,0.563-0.337,0.744c-0.228,0.176-0.536,0.264-0.943,0.264c-0.396,0-0.697-0.096-0.91-0.285
	C85.467,56.342,85.359,56.068,85.353,55.711L85.353,55.711z M90.653,56.711l-0.922-3.066h0.538l0.652,2.344l0.609-2.344h0.596
	l0.598,2.344l0.671-2.344h0.53l-0.932,3.066h-0.521l-0.65-2.363l-0.648,2.363H90.653L90.653,56.711z M94.365,53.078v-0.584h0.513
	v0.584H94.365L94.365,53.078z M94.365,56.711v-3.066h0.513v3.066H94.365L94.365,56.711z M96.275,55.941
	c0,0.141,0.016,0.227,0.059,0.275c0.036,0.045,0.106,0.068,0.215,0.068c0.029,0,0.067,0,0.108,0
	c0.042-0.004,0.101-0.008,0.164-0.016v0.438c-0.081,0.018-0.158,0.029-0.227,0.035c-0.068,0.008-0.128,0.016-0.185,0.016
	c-0.242,0-0.409-0.051-0.509-0.143c-0.095-0.098-0.147-0.262-0.147-0.502v-2.061h-0.459v-0.408h0.459v-0.861h0.521v0.861h0.546
	v0.408h-0.546V55.941L96.275,55.941z M99.359,56.711V54.82c0-0.301-0.043-0.51-0.14-0.625c-0.089-0.117-0.25-0.174-0.479-0.174
	c-0.276,0-0.495,0.084-0.661,0.24c-0.165,0.154-0.244,0.365-0.244,0.637v1.813h-0.521v-4.217h0.521v1.58
	c0.091-0.166,0.221-0.289,0.385-0.377c0.163-0.092,0.356-0.129,0.575-0.129c0.231,0,0.426,0.033,0.587,0.1
	c0.158,0.068,0.282,0.182,0.365,0.316c0.051,0.078,0.079,0.158,0.106,0.262c0.02,0.096,0.03,0.262,0.03,0.479v0.145v1.842H99.359
	L99.359,56.711z M103.262,56.711v-3.707h-1.34v-0.51h3.246v0.51h-1.333v3.707H103.262L103.262,56.711z M105.191,56.711v-3.066h0.503
	v0.547c0.079-0.207,0.19-0.357,0.333-0.461c0.141-0.102,0.309-0.154,0.513-0.154c0.043,0,0.068,0,0.086,0
	c0.018,0.004,0.034,0.008,0.048,0.012v0.543c-0.014-0.004-0.026-0.008-0.039-0.008c-0.02,0-0.049,0-0.078,0
	c-0.277,0-0.488,0.076-0.633,0.225c-0.143,0.146-0.217,0.373-0.217,0.658v1.705H105.191L105.191,56.711z M107.657,53.645v1.883
	c0,0.297,0.043,0.51,0.139,0.629c0.088,0.117,0.255,0.178,0.479,0.178c0.295,0,0.524-0.092,0.677-0.262
	c0.149-0.18,0.227-0.438,0.227-0.777v-1.65h0.518v3.066h-0.492v-0.457c-0.109,0.182-0.248,0.313-0.416,0.396
	c-0.175,0.096-0.372,0.137-0.599,0.137c-0.217,0-0.401-0.031-0.562-0.105c-0.159-0.074-0.28-0.178-0.365-0.313
	c-0.048-0.076-0.079-0.16-0.104-0.26c-0.021-0.1-0.029-0.262-0.029-0.479v-0.143v-1.844H107.657L107.657,53.645z M110.269,55.711
	h0.498c0.017,0.213,0.092,0.373,0.222,0.479c0.133,0.104,0.322,0.16,0.559,0.16c0.228,0,0.399-0.045,0.525-0.129
	c0.133-0.088,0.197-0.205,0.197-0.357c0-0.115-0.034-0.199-0.097-0.26s-0.184-0.113-0.372-0.158l-0.577-0.15
	c-0.324-0.082-0.556-0.182-0.681-0.311c-0.124-0.123-0.188-0.313-0.188-0.553c0-0.27,0.099-0.49,0.305-0.646
	c0.208-0.156,0.488-0.24,0.85-0.24c0.364,0,0.653,0.088,0.869,0.256c0.219,0.172,0.321,0.398,0.321,0.684V54.5h-0.494
	c-0.015-0.164-0.078-0.289-0.198-0.377c-0.128-0.09-0.287-0.133-0.498-0.133c-0.208,0-0.374,0.035-0.476,0.107
	c-0.112,0.074-0.166,0.176-0.166,0.313c0,0.105,0.039,0.182,0.107,0.242c0.067,0.053,0.193,0.104,0.378,0.148l0.504,0.115
	c0.349,0.084,0.596,0.189,0.728,0.318c0.133,0.133,0.2,0.322,0.2,0.564c0,0.318-0.109,0.563-0.337,0.744
	c-0.228,0.176-0.537,0.264-0.94,0.264c-0.396,0-0.701-0.096-0.912-0.285C110.385,56.342,110.277,56.068,110.269,55.711
	L110.269,55.711z M114.001,55.941c0,0.141,0.021,0.227,0.057,0.275c0.042,0.045,0.111,0.068,0.221,0.068c0.027,0,0.063,0,0.106,0
	c0.046-0.004,0.101-0.008,0.169-0.016v0.438c-0.087,0.018-0.165,0.029-0.233,0.035c-0.068,0.008-0.126,0.016-0.178,0.016
	c-0.241,0-0.415-0.051-0.512-0.143c-0.095-0.098-0.146-0.262-0.146-0.502v-2.061h-0.462v-0.408h0.462v-0.861h0.516v0.861h0.553
	v0.408h-0.553V55.941L114.001,55.941z"/>
<path fill-rule="evenodd" clip-rule="evenodd" fill="#FFFFFF" d="M115.458,53.895h0.176c0,0.096,0.033,0.172,0.093,0.229
	c0.063,0.061,0.144,0.082,0.253,0.082c0.099,0,0.18-0.018,0.236-0.063c0.063-0.041,0.094-0.102,0.094-0.174
	c0-0.104-0.113-0.18-0.335-0.232c-0.013-0.004-0.022-0.006-0.031-0.006c-0.176-0.041-0.296-0.09-0.354-0.143
	c-0.063-0.057-0.086-0.127-0.086-0.219c0-0.121,0.038-0.219,0.129-0.291c0.086-0.072,0.198-0.104,0.342-0.104
	c0.15,0,0.262,0.037,0.348,0.113c0.083,0.07,0.125,0.17,0.126,0.305h-0.173c-0.005-0.084-0.034-0.152-0.087-0.203
	c-0.056-0.047-0.131-0.07-0.227-0.07c-0.087,0-0.156,0.021-0.211,0.061c-0.052,0.039-0.081,0.088-0.081,0.152
	c0,0.104,0.114,0.18,0.331,0.229c0.03,0.008,0.057,0.016,0.072,0.02c0.005,0,0.008,0.004,0.018,0.004
	c0.146,0.031,0.241,0.072,0.288,0.113c0.031,0.027,0.06,0.064,0.082,0.104c0.018,0.049,0.024,0.094,0.024,0.145
	c0,0.129-0.044,0.232-0.137,0.311c-0.091,0.07-0.212,0.107-0.369,0.107c-0.164,0-0.286-0.037-0.375-0.117
	C115.517,54.162,115.465,54.051,115.458,53.895L115.458,53.895z M116.874,53.199v1.131h-0.167v-1.324h0.256l0.332,1.014
	c0.005,0.031,0.015,0.051,0.02,0.068c0.006,0.014,0.011,0.031,0.012,0.043c0.005-0.025,0.012-0.043,0.014-0.064
	c0.004-0.014,0.009-0.029,0.014-0.047l0.343-1.014h0.258v1.324h-0.18v-1.131c-0.002,0.025-0.005,0.045-0.011,0.059
	c-0.004,0.021-0.011,0.047-0.015,0.061l-0.341,1.012h-0.176l-0.331-1.012c-0.006-0.014-0.011-0.035-0.016-0.055
	C116.883,53.248,116.879,53.227,116.874,53.199L116.874,53.199z"/>
</svg>
