<?xml version="1.0" encoding="utf-8"?>
<!-- Generator: Adobe Illustrator 16.0.3, SVG Export Plug-In . SVG Version: 6.00 Build 0)  -->
<!DOCTYPE svg PUBLIC "-//W3C//DTD SVG 1.1//EN" "http://www.w3.org/Graphics/SVG/1.1/DTD/svg11.dtd">

<svg version="1.1" xmlns="http://www.w3.org/2000/svg" width="108" height="53" viewBox="0 0 64 32" fill="#FFF">
<path d="M45.804 8.94c-1.417 0-2.565 1.149-2.565 2.566 0 1.416 1.149 2.565 2.565 2.565 1.418 0 2.565-1.149 2.565-2.565s-1.147-2.566-2.565-2.566zM45.804 12.822c-0.727 0-1.316-0.589-1.316-1.316 0-0.728 0.59-1.317 1.316-1.317 0.728 0 1.317 0.589 1.317 1.317 0 0.727-0.59 1.316-1.317 1.316z"></path>
<path d="M34.038 8.94c-1.416 0-2.565 1.149-2.565 2.566 0 1.416 1.149 2.565 2.565 2.565 1.418 0 2.566-1.149 2.566-2.565s-1.148-2.566-2.566-2.566zM34.038 12.822c-0.727 0-1.316-0.589-1.316-1.316 0-0.728 0.589-1.317 1.316-1.317 0.728 0 1.316 0.589 1.316 1.317 0 0.727-0.589 1.316-1.316 1.316z"></path>
<path d="M43.073 12.893c-0.162 0.047-0.411 0.094-0.505 0.094-0.438 0-0.535-0.151-0.535-0.571v-2.37h1.050v-0.991h-1.050v-1.4h-1.179l-0.247 1.4-0.89 0c-0.672 0.003-1.18 0.413-1.505 1.056l-0.41-1.056h-0.846v4.923h1.446v-2.142c0-1.080 0.638-1.769 1.395-1.791h0.791v2.447c0 1.152 0.59 1.58 1.551 1.58 0.496 0 0.876-0.105 1.105-0.18l-0.17-1z"></path>
<path d="M50.122 10.613v3.365h-1.407v-4.923h0.853l0.286 0.752z"></path>
<path d="M49.849 9.813c0.428-0.496 1.013-0.872 1.698-0.872 1.17 0 1.652 0.934 1.652 1.8v3.238h-1.448v-3.196c0-0.422-0.351-0.651-0.731-0.651-0.406 0-0.667 0.232-0.896 0.48z"></path>
<path d="M25.831 7.274h1.612l2.214 4.216v-4.216h1.334v6.706h-1.46l-2.365-4.636v4.636h-1.335z"></path>
<path d="M57.472 4.756v0.24h-0.351v1.182h-0.275v-1.182h-0.345v-0.24z"></path>
<path d="M57.669 6.178v-1.422h0.37l0.246 0.931 0.251-0.931h0.375v1.422h-0.226v-1.112h-0.007l-0.288 1.112h-0.2l-0.29-1.112h-0.007v1.112z"></path>
<path d="M25.428 19.921l0.335-0.52c0.272 0.201 0.68 0.387 1.177 0.387 0.484 0 0.782-0.219 0.782-0.6 0-0.437-0.377-0.553-0.997-0.769-0.557-0.195-1.103-0.476-1.103-1.263 0-0.738 0.581-1.139 1.364-1.139 0.52 0 0.904 0.102 1.212 0.284l-0.268 0.553c-0.259-0.135-0.568-0.226-0.932-0.226-0.436 0-0.698 0.165-0.698 0.511 0 0.406 0.303 0.51 0.873 0.697 0.595 0.192 1.249 0.467 1.249 1.34 0 0.738-0.527 1.224-1.473 1.224-0.702 0-1.218-0.242-1.522-0.48z"></path>
<path d="M29.694 16.085h2.533v0.589h-1.812v1.163h1.432v0.576h-1.432v1.344h1.923v0.588h-2.644z"></path>
<path d="M33.37 18.218c0-1.244 0.595-2.2 1.783-2.2 0.533 0 0.954 0.169 1.249 0.513l-0.42 0.487c-0.255-0.249-0.471-0.371-0.817-0.371-0.698 0-1.019 0.571-1.019 1.626 0 0.99 0.34 1.491 1.026 1.491 0.382 0 0.649-0.2 0.883-0.448l0.425 0.473c-0.309 0.365-0.696 0.613-1.316 0.613-1.225 0-1.794-0.934-1.794-2.183z"></path>
<path d="M37.654 18.714v-2.63h0.727v2.747c0 0.586 0.145 0.969 0.763 0.969 0.614 0 0.765-0.384 0.765-0.969v-2.747h0.734v2.63c0 1.056-0.406 1.686-1.504 1.686-1.080 0-1.485-0.631-1.485-1.686z"></path>
<path d="M45.088 20.346h-0.789l-0.817-1.807h-0.673v1.807h-0.723v-4.261h1.39c0.86 0 1.532 0.309 1.532 1.243 0 0.637-0.382 0.956-0.808 1.108l0.887 1.911zM43.452 17.982c0.538 0 0.817-0.176 0.817-0.667 0-0.474-0.284-0.642-0.776-0.642h-0.684v1.309h0.643z"></path>
<path d="M46.323 16.085h2.534v0.589h-1.813v1.163h1.43v0.576h-1.43v1.344h1.922v0.588h-2.642z"></path>
<path d="M50.183 16.085h1.065c1.388 0 2.056 0.752 2.056 2.115 0 1.389-0.679 2.146-2.019 2.146h-1.101v-4.261zM51.204 19.757c0.995 0 1.335-0.459 1.335-1.558 0-0.963-0.268-1.527-1.245-1.527h-0.387v3.085h0.298z"></path>
<path d="M50.182 4.756h-32.705c-1.185-0.48-2.476-0.75-3.831-0.75-5.652 0-10.251 4.598-10.251 10.25s4.599 10.251 10.251 10.251c1.355 0 2.646-0.27 3.831-0.75h32.705c5.238 0 9.499-4.262 9.499-9.501s-4.262-9.501-9.499-9.501zM13.646 21.265c-1.871-0-3.631-0.73-4.955-2.053-1.324-1.325-2.053-3.085-2.053-4.955s0.729-3.631 2.053-4.955c1.325-1.324 3.085-2.053 4.955-2.053s3.631 0.729 4.955 2.052c1.323 1.325 2.052 3.085 2.053 4.956-0.001 1.871-0.73 3.63-2.052 4.955-1.325 1.323-3.085 2.052-4.956 2.053zM50.182 23.012h-31.232c2.959-1.8 4.947-5.046 4.947-8.755s-1.988-6.956-4.948-8.755h31.233c4.826 0 8.754 3.928 8.754 8.755s-3.927 8.755-8.754 8.755z"></path>
<path d="M24.812 2.427h0.799v0.8h-0.799v-0.8z"></path>
<path d="M24.812 0.834h0.799v0.801h-0.799v-0.801z"></path>
<path d="M22.564 3.221h0.746v0.78h-0.746v-0.78z"></path>
<path d="M21.084 4.753h0.753v0.747h-0.753v-0.747z"></path>
<path d="M23.31 4.002h0.837v0.752h-0.837v-0.752z"></path>
<path d="M20.334 4.038h0.749v0.715h-0.749v-0.715z"></path>
<path d="M22.564 4.753h0.746v0.747h-0.746v-0.747z"></path>
<path d="M24.022 1.635h0.79v0.792h-0.79v-0.792z"></path>
<path d="M22.564 2.427h1.458v0.794h-1.458v-0.794z"></path>
<path d="M21.837 3.221h0.727v1.532h-0.727v-1.532z"></path>
<path d="M21.837 5.5v0.752h-0.753v-0.752h-1.248v0.542h-0.669v0.668h0.747v0.745h-0.747v-0.745h-0.794v1.168h-0.751v0.746h-0.499v0.749h-0.548c-0.616 0.916-2.159 3.77-2.625 4.932-1.682-2.34-2.988-3.268-4.016-3.603-0.555-0.167-1.222 0.437-0.302 1.387 2.116 2.327 2.782 4.254 3.425 5.79 0.34 0.811 1.866 0.937 2.172 0.111 0.651-1.744 1.596-3.704 2.714-5.313v-0.834h0.597v-0.752h0.627v-0.872h0.749v-0.84h-0.758v-0.763h0.758v0.763h0.742l-0.001-0.756h0.594v-0.912h0.669v-0.628h0.644v-1.583h-0.727z"></path>
<path d="M7.376 28.022h0.561v0.409c0.181-0.255 0.436-0.459 0.83-0.459 0.58 0 1.141 0.459 1.141 1.271v0.009c0 0.812-0.557 1.271-1.141 1.271-0.403 0-0.659-0.204-0.83-0.432v1.123h-0.561v-3.192zM9.338 29.251v-0.009c0-0.473-0.321-0.784-0.701-0.784s-0.713 0.315-0.713 0.784v0.009c0 0.474 0.333 0.784 0.713 0.784 0.386 0 0.701-0.302 0.701-0.784z"></path>
<path d="M10.365 29.26v-0.010c0-0.7 0.557-1.28 1.308-1.28s1.303 0.57 1.303 1.271v0.009c0 0.696-0.557 1.276-1.313 1.276-0.747 0-1.299-0.571-1.299-1.266zM12.416 29.26v-0.010c0-0.431-0.311-0.788-0.751-0.788-0.45 0-0.737 0.353-0.737 0.779v0.009c0 0.427 0.311 0.789 0.747 0.789 0.454 0 0.742-0.358 0.742-0.78z"></path>
<path d="M13.248 28.022h0.575l0.492 1.68 0.542-1.689h0.478l0.547 1.689 0.501-1.68h0.561l-0.801 2.468h-0.502l-0.546-1.675-0.553 1.675h-0.5z"></path>
<path d="M17.233 29.256v-0.010c0-0.7 0.496-1.276 1.196-1.276 0.78 0 1.174 0.612 1.174 1.317 0 0.050-0.005 0.102-0.009 0.158h-1.8c0.060 0.398 0.343 0.621 0.705 0.621 0.274 0 0.468-0.101 0.663-0.291l0.329 0.291c-0.232 0.279-0.552 0.46-1.001 0.46-0.709 0-1.257-0.516-1.257-1.271zM19.047 29.075c-0.037-0.361-0.251-0.645-0.622-0.645-0.343 0-0.584 0.265-0.636 0.645h1.258z"></path>
<path d="M20.188 28.022h0.561v0.552c0.153-0.366 0.436-0.616 0.867-0.599v0.594h-0.032c-0.492 0-0.835 0.32-0.835 0.97v0.932h-0.561v-2.449z"></path>
<path d="M21.942 29.256v-0.010c0-0.7 0.496-1.276 1.197-1.276 0.779 0 1.173 0.612 1.173 1.317 0 0.050-0.005 0.102-0.009 0.158h-1.8c0.060 0.398 0.343 0.621 0.705 0.621 0.274 0 0.469-0.101 0.663-0.291l0.33 0.291c-0.232 0.279-0.552 0.46-1.002 0.46-0.709 0-1.257-0.516-1.257-1.271zM23.756 29.075c-0.037-0.361-0.25-0.645-0.622-0.645-0.343 0-0.584 0.265-0.635 0.645h1.257z"></path>
<path d="M24.768 29.251v-0.009c0-0.812 0.552-1.271 1.136-1.271 0.403 0 0.659 0.204 0.835 0.432v-1.317h0.561v3.386h-0.561v-0.408c-0.181 0.254-0.436 0.459-0.835 0.459-0.575-0-1.136-0.459-1.136-1.272zM26.748 29.251v-0.009c0-0.473-0.334-0.784-0.709-0.784-0.386 0-0.705 0.297-0.705 0.784v0.009c0 0.474 0.325 0.784 0.705 0.784 0.375 0 0.709-0.316 0.709-0.784z"></path>
<path d="M29.952 30.090v0.38h-0.561v-3.386h0.561v1.346c0.18-0.255 0.436-0.459 0.83-0.459 0.58 0 1.14 0.459 1.14 1.271v0.009c0 0.812-0.557 1.271-1.14 1.271-0.403 0-0.659-0.204-0.83-0.432zM31.352 29.251v-0.009c0-0.473-0.32-0.784-0.701-0.784s-0.713 0.315-0.713 0.784v0.009c0 0.474 0.333 0.784 0.713 0.784 0.386 0 0.701-0.302 0.701-0.784z"></path>
<path d="M32.305 31.078l0.19-0.417c0.103 0.056 0.213 0.093 0.33 0.093 0.158 0 0.255-0.070 0.348-0.283l-1.021-2.449h0.598l0.697 1.818 0.635-1.818h0.584l-0.974 2.519c-0.195 0.501-0.413 0.687-0.808 0.687-0.236-0-0.408-0.056-0.58-0.149z"></path>
<path d="M36.325 27.224h0.63l0.979 2.496 0.974-2.496h0.617l-1.35 3.27h-0.5z"></path>
<path d="M39.639 29.256v-0.010c0-0.7 0.497-1.276 1.198-1.276 0.779 0 1.172 0.612 1.172 1.317 0 0.050-0.004 0.102-0.009 0.158h-1.799c0.059 0.398 0.343 0.621 0.704 0.621 0.275 0 0.47-0.101 0.664-0.291l0.329 0.291c-0.232 0.279-0.552 0.46-1.002 0.46-0.708 0-1.257-0.516-1.257-1.271zM41.453 29.075c-0.036-0.361-0.25-0.645-0.621-0.645-0.344 0-0.584 0.265-0.635 0.645h1.256z"></path>
<path d="M42.594 28.022h0.561v0.552c0.153-0.366 0.436-0.616 0.868-0.599v0.594h-0.032c-0.492 0-0.835 0.32-0.835 0.97v0.932h-0.561v-2.449z"></path>
<path d="M44.481 27.113h0.603v0.533h-0.603v-0.533zM44.505 28.022h0.561v2.449h-0.561v-2.449z"></path>
<path d="M45.649 29.998l0.343-0.408c0.31 0.269 0.622 0.422 1.026 0.422 0.352 0 0.575-0.162 0.575-0.408v-0.009c0-0.232-0.131-0.358-0.733-0.496-0.692-0.167-1.081-0.371-1.081-0.969v-0.010c0-0.557 0.463-0.941 1.108-0.941 0.475 0 0.85 0.144 1.179 0.408l-0.306 0.431c-0.291-0.218-0.584-0.334-0.881-0.334-0.334 0-0.529 0.172-0.529 0.385v0.010c0 0.251 0.149 0.362 0.771 0.51 0.686 0.167 1.043 0.413 1.043 0.951v0.009c0 0.608-0.477 0.97-1.159 0.97-0.496 0-0.965-0.172-1.354-0.519z"></path>
<path d="M48.781 27.113h0.603v0.533h-0.603v-0.533zM48.805 28.022h0.56v2.449h-0.56v-2.449z"></path>
<path d="M50.072 30.93l0.209-0.422c0.26 0.162 0.538 0.259 0.873 0.259 0.501 0 0.773-0.259 0.773-0.751v-0.19c-0.203 0.264-0.459 0.45-0.862 0.45-0.576 0-1.114-0.427-1.114-1.146v-0.010c0-0.723 0.542-1.15 1.114-1.15 0.412 0 0.667 0.19 0.857 0.417v-0.366h0.561v1.948c0 0.412-0.106 0.718-0.31 0.923-0.223 0.223-0.565 0.329-1.006 0.329-0.404 0-0.78-0.102-1.095-0.293zM51.932 29.13v-0.010c0-0.403-0.329-0.677-0.719-0.677s-0.695 0.27-0.695 0.673v0.009c0 0.404 0.31 0.677 0.695 0.677 0.39-0 0.719-0.278 0.719-0.673z"></path>
<path d="M53.204 28.022h0.561v0.38c0.157-0.231 0.385-0.432 0.765-0.432 0.552 0 0.873 0.371 0.873 0.941v1.559h-0.562v-1.391c0-0.38-0.19-0.599-0.523-0.599-0.326 0-0.552 0.227-0.552 0.608v1.382h-0.561v-2.448z"></path>
</svg>